<?xml version="1.0" standalone="no"?>
<!DOCTYPE svg PUBLIC "-//W3C//DTD SVG 20010904//EN"
 "http://www.w3.org/TR/2001/REC-SVG-20010904/DTD/svg10.dtd">
<svg version="1.0" xmlns="http://www.w3.org/2000/svg"
 width="512.000000pt" height="512.000000pt" viewBox="0 0 512.000000 512.000000"
 preserveAspectRatio="xMidYMid meet">

<g transform="translate(0.000000,512.000000) scale(0.100000,-0.100000)"
fill="#000000" stroke="none">
<path d="M1900 4382 c-13 -11 -22 -29 -22 -45 0 -14 140 -332 311 -705 171
-374 311 -684 311 -691 0 -6 -8 -11 -17 -11 -10 1 -253 -12 -540 -27 l-522
-27 -75 69 c-42 39 -133 124 -202 190 l-127 120 -216 3 c-133 2 -227 -1 -244
-7 -56 -22 -55 -32 37 -364 47 -170 86 -317 86 -327 0 -10 -39 -157 -86 -327
-92 -331 -93 -342 -38 -363 28 -11 429 -12 457 -2 9 4 104 89 211 189 l194
182 535 -27 c294 -15 539 -30 542 -34 4 -4 -133 -313 -304 -686 -194 -425
-311 -691 -311 -710 0 -60 13 -62 320 -62 205 0 280 3 293 12 9 7 221 339 470
738 l453 725 444 8 c341 5 457 11 495 22 178 51 286 238 241 416 -32 125 -128
222 -251 254 -47 12 -155 17 -495 22 l-435 8 -453 725 c-248 399 -460 731
-469 738 -12 9 -88 12 -294 12 -252 0 -279 -2 -299 -18z m975 -843 c289 -462
465 -734 479 -739 11 -5 233 -13 491 -17 428 -8 473 -10 505 -27 82 -43 122
-107 122 -196 0 -96 -62 -182 -150 -208 -22 -6 -220 -14 -500 -18 -404 -6
-466 -9 -482 -23 -11 -9 -221 -340 -468 -736 l-449 -720 -186 -3 c-106 -1
-187 1 -187 7 0 5 140 313 310 685 177 387 310 688 310 704 0 61 18 59 -631
92 -328 16 -613 30 -635 30 -37 0 -49 -9 -236 -185 l-197 -185 -150 0 c-83 0
-151 3 -151 6 0 3 34 129 76 280 l75 274 -75 273 c-42 151 -76 277 -76 280 0
4 67 7 150 7 l150 0 191 -182 c105 -101 197 -186 204 -190 7 -4 295 8 640 27
685 38 665 35 665 96 0 16 -137 327 -310 704 -170 372 -310 680 -310 685 0 6
74 10 184 10 l185 0 456 -731z"/>
</g>
</svg>
